<svg width="1095" height="761" viewBox="0 0 1095 761" fill="none" xmlns="http://www.w3.org/2000/svg">
<g clip-path="url(#clip0_1_37)">
<path opacity="0.1" d="M278.8 305.02H162.93C158.827 305.02 155.5 308.347 155.5 312.45V337.11C155.5 341.213 158.827 344.54 162.93 344.54H278.8C282.903 344.54 286.23 341.213 286.23 337.11V312.45C286.23 308.347 282.903 305.02 278.8 305.02Z" fill="#6C63FF"/>
<path opacity="0.1" d="M415.61 344.55H299.74C295.637 344.55 292.31 347.877 292.31 351.98V376.64C292.31 380.743 295.637 384.07 299.74 384.07H415.61C419.713 384.07 423.04 380.743 423.04 376.64V351.98C423.04 347.877 419.713 344.55 415.61 344.55Z" fill="#6C63FF"/>
<path opacity="0.1" d="M552.43 384.07H436.56C432.457 384.07 429.13 387.397 429.13 391.5V416.16C429.13 420.263 432.457 423.59 436.56 423.59H552.43C556.533 423.59 559.86 420.263 559.86 416.16V391.5C559.86 387.397 556.533 384.07 552.43 384.07Z" fill="#6C63FF"/>
<path opacity="0.1" d="M278.8 245.74H162.93C158.827 245.74 155.5 249.067 155.5 253.17V277.83C155.5 281.933 158.827 285.26 162.93 285.26H278.8C282.903 285.26 286.23 281.933 286.23 277.83V253.17C286.23 249.067 282.903 245.74 278.8 245.74Z" fill="#6C63FF"/>
<path opacity="0.1" d="M415.61 285.26H299.74C295.637 285.26 292.31 288.587 292.31 292.69V317.35C292.31 321.453 295.637 324.78 299.74 324.78H415.61C419.713 324.78 423.04 321.453 423.04 317.35V292.69C423.04 288.587 419.713 285.26 415.61 285.26Z" fill="#6C63FF"/>
<path opacity="0.1" d="M552.43 324.79H436.56C432.457 324.79 429.13 328.117 429.13 332.22V356.88C429.13 360.983 432.457 364.31 436.56 364.31H552.43C556.533 364.31 559.86 360.983 559.86 356.88V332.22C559.86 328.117 556.533 324.79 552.43 324.79Z" fill="#6C63FF"/>
<path opacity="0.1" d="M704.44 305.02H588.57C584.467 305.02 581.14 308.347 581.14 312.45V337.11C581.14 341.213 584.467 344.54 588.57 344.54H704.44C708.543 344.54 711.87 341.213 711.87 337.11V312.45C711.87 308.347 708.543 305.02 704.44 305.02Z" fill="#6C63FF"/>
<path opacity="0.1" d="M841.25 344.55H725.38C721.277 344.55 717.95 347.877 717.95 351.98V376.64C717.95 380.743 721.277 384.07 725.38 384.07H841.25C845.353 384.07 848.68 380.743 848.68 376.64V351.98C848.68 347.877 845.353 344.55 841.25 344.55Z" fill="#6C63FF"/>
<path opacity="0.1" d="M978.07 384.07H862.2C858.097 384.07 854.77 387.397 854.77 391.5V416.16C854.77 420.263 858.097 423.59 862.2 423.59H978.07C982.173 423.59 985.5 420.263 985.5 416.16V391.5C985.5 387.397 982.173 384.07 978.07 384.07Z" fill="#6C63FF"/>
<path opacity="0.1" d="M704.44 245.74H588.57C584.467 245.74 581.14 249.067 581.14 253.17V277.83C581.14 281.933 584.467 285.26 588.57 285.26H704.44C708.543 285.26 711.87 281.933 711.87 277.83V253.17C711.87 249.067 708.543 245.74 704.44 245.74Z" fill="#6C63FF"/>
<path opacity="0.1" d="M841.25 285.26H725.38C721.277 285.26 717.95 288.587 717.95 292.69V317.35C717.95 321.453 721.277 324.78 725.38 324.78H841.25C845.353 324.78 848.68 321.453 848.68 317.35V292.69C848.68 288.587 845.353 285.26 841.25 285.26Z" fill="#6C63FF"/>
<path opacity="0.1" d="M978.07 324.79H862.2C858.097 324.79 854.77 328.117 854.77 332.22V356.88C854.77 360.983 858.097 364.31 862.2 364.31H978.07C982.173 364.31 985.5 360.983 985.5 356.88V332.22C985.5 328.117 982.173 324.79 978.07 324.79Z" fill="#6C63FF"/>
<path opacity="0.1" d="M278.8 166.69H162.93C158.827 166.69 155.5 170.017 155.5 174.12V198.78C155.5 202.883 158.827 206.21 162.93 206.21H278.8C282.903 206.21 286.23 202.883 286.23 198.78V174.12C286.23 170.017 282.903 166.69 278.8 166.69Z" fill="#6C63FF"/>
<path opacity="0.1" d="M415.61 206.21H299.74C295.637 206.21 292.31 209.537 292.31 213.64V238.3C292.31 242.403 295.637 245.73 299.74 245.73H415.61C419.713 245.73 423.04 242.403 423.04 238.3V213.64C423.04 209.537 419.713 206.21 415.61 206.21Z" fill="#6C63FF"/>
<path opacity="0.1" d="M552.43 245.74H436.56C432.457 245.74 429.13 249.067 429.13 253.17V277.83C429.13 281.933 432.457 285.26 436.56 285.26H552.43C556.533 285.26 559.86 281.933 559.86 277.83V253.17C559.86 249.067 556.533 245.74 552.43 245.74Z" fill="#6C63FF"/>
<path opacity="0.1" d="M278.8 107.4H162.93C158.827 107.4 155.5 110.727 155.5 114.83V139.49C155.5 143.593 158.827 146.92 162.93 146.92H278.8C282.903 146.92 286.23 143.593 286.23 139.49V114.83C286.23 110.727 282.903 107.4 278.8 107.4Z" fill="#6C63FF"/>
<path opacity="0.1" d="M415.61 146.93H299.74C295.637 146.93 292.31 150.257 292.31 154.36V179.02C292.31 183.123 295.637 186.45 299.74 186.45H415.61C419.713 186.45 423.04 183.123 423.04 179.02V154.36C423.04 150.257 419.713 146.93 415.61 146.93Z" fill="#6C63FF"/>
<path opacity="0.1" d="M552.43 186.45H436.56C432.457 186.45 429.13 189.777 429.13 193.88V218.54C429.13 222.643 432.457 225.97 436.56 225.97H552.43C556.533 225.97 559.86 222.643 559.86 218.54V193.88C559.86 189.777 556.533 186.45 552.43 186.45Z" fill="#6C63FF"/>
<path opacity="0.1" d="M704.44 166.69H588.57C584.467 166.69 581.14 170.017 581.14 174.12V198.78C581.14 202.883 584.467 206.21 588.57 206.21H704.44C708.543 206.21 711.87 202.883 711.87 198.78V174.12C711.87 170.017 708.543 166.69 704.44 166.69Z" fill="#6C63FF"/>
<path opacity="0.1" d="M841.25 206.21H725.38C721.277 206.21 717.95 209.537 717.95 213.64V238.3C717.95 242.403 721.277 245.73 725.38 245.73H841.25C845.353 245.73 848.68 242.403 848.68 238.3V213.64C848.68 209.537 845.353 206.21 841.25 206.21Z" fill="#6C63FF"/>
<path opacity="0.1" d="M978.07 245.74H862.2C858.097 245.74 854.77 249.067 854.77 253.17V277.83C854.77 281.933 858.097 285.26 862.2 285.26H978.07C982.173 285.26 985.5 281.933 985.5 277.83V253.17C985.5 249.067 982.173 245.74 978.07 245.74Z" fill="#6C63FF"/>
<path opacity="0.1" d="M704.44 107.4H588.57C584.467 107.4 581.14 110.727 581.14 114.83V139.49C581.14 143.593 584.467 146.92 588.57 146.92H704.44C708.543 146.92 711.87 143.593 711.87 139.49V114.83C711.87 110.727 708.543 107.4 704.44 107.4Z" fill="#6C63FF"/>
<path opacity="0.1" d="M841.25 146.93H725.38C721.277 146.93 717.95 150.257 717.95 154.36V179.02C717.95 183.123 721.277 186.45 725.38 186.45H841.25C845.353 186.45 848.68 183.123 848.68 179.02V154.36C848.68 150.257 845.353 146.93 841.25 146.93Z" fill="#6C63FF"/>
<path opacity="0.1" d="M978.07 186.45H862.2C858.097 186.45 854.77 189.777 854.77 193.88V218.54C854.77 222.643 858.097 225.97 862.2 225.97H978.07C982.173 225.97 985.5 222.643 985.5 218.54V193.88C985.5 189.777 982.173 186.45 978.07 186.45Z" fill="#6C63FF"/>
<path opacity="0.1" d="M547.5 760.5C849.6 760.5 1094.5 715.952 1094.5 661C1094.5 606.048 849.6 561.5 547.5 561.5C245.4 561.5 0.5 606.048 0.5 661C0.5 715.952 245.4 760.5 547.5 760.5Z" fill="#6C63FF"/>
<path d="M240.5 321.5L194.5 603.5L402.5 581.5L393.5 557.5L231 571L269 321L240.5 321.5Z" fill="#3F3D56"/>
<path d="M186.5 1.5L466.5 0.5L547.5 613.5L266.5 651.5L186.5 1.5Z" fill="#3F3D56"/>
<path d="M217 25H443L522 595L289 627L217 25Z" fill="white"/>
<path d="M430.14 569.36C431.56 572.08 432.62 575.02 434.47 577.47C439.87 584.69 450.12 585.82 457.81 590.53C458.195 590.725 458.512 591.032 458.72 591.41C459.07 592.24 458.29 593.11 457.54 593.63C451.71 597.72 444.06 597.81 436.93 597.76C434.534 597.845 432.137 597.617 429.8 597.08C426.03 596.08 422.8 593.45 419.08 592.38C417.151 591.898 415.177 591.62 413.19 591.55L405.38 591.02C403.301 590.99 401.242 590.608 399.29 589.89C398.318 589.518 397.455 588.905 396.784 588.11C396.112 587.314 395.653 586.361 395.45 585.34C395.23 583.68 395.94 582.07 396.36 580.45C397.36 576.61 397.05 571.97 400.04 569.35C401.272 568.407 402.685 567.726 404.19 567.35C409.625 565.518 415.173 564.042 420.8 562.93C425.43 562.02 428.09 565.42 430.14 569.36Z" fill="#3F3D56"/>
<path d="M341.8 590.99C342 593.12 342.06 595.56 340.52 597.05C339.561 597.846 338.403 598.365 337.17 598.55C329.78 600.27 321.54 600.39 315.11 596.37C314.441 595.988 313.851 595.482 313.37 594.88C312.834 594.06 312.53 593.109 312.49 592.13C312.26 589.3 313.13 586.51 313.92 583.78C315.789 577.302 317.209 570.703 318.17 564.03C318.25 563.48 337.04 567.03 338.29 568.89C339.86 571.19 339.87 576.71 340.29 579.45C340.923 583.277 341.427 587.123 341.8 590.99Z" fill="#3F3D56"/>
<path d="M411.74 330.77L416.74 377.26C417.74 386.76 418.79 396.31 418.1 405.84C417.3 416.84 414.22 427.84 415.52 438.74C416.03 442.98 417.19 447.14 417.36 451.41C417.392 454.249 417.248 457.088 416.93 459.91C414.67 488.12 421.82 516.11 425.82 544.12C426.463 547.575 426.605 551.105 426.24 554.6C425.72 558.15 424.68 562.81 427.84 564.49L398.16 575.25C394.37 570.5 396.88 563.11 396.16 557.08C395.5 551.65 392.52 546.81 390.93 541.58C389.49 536.88 389.19 531.93 388.72 527.05C386.13 500.48 378.18 474.6 376.32 447.97C376.26 445.398 375.925 442.84 375.32 440.34C374.32 437.03 372.32 434.14 370.86 431.03C368.62 426.36 367.52 421.24 366.44 416.18L360.09 386.43C353.67 395.99 353.93 408.43 352.66 419.89C350.88 435.89 346.9 451.62 343.66 467.42C342.907 470.82 342.343 474.258 341.97 477.72C341.13 486.99 342.8 496.35 341.91 505.61C340.91 516.34 336.4 526.81 337.49 537.54C338.09 543.48 340.37 549.1 341.91 554.86C343.45 560.62 344.21 566.94 341.86 572.43C333.647 569.414 324.824 568.44 316.15 569.59C306.62 559.84 304.93 546.24 304.28 532.59C303.63 518.94 305.2 505.27 303.5 491.75C303 487.75 302.22 483.85 302.09 479.86C301.67 467.07 307.82 455.1 310.88 442.67C313.634 431.48 313.897 419.822 311.65 408.52C310.15 401.05 307.57 393.8 306.65 386.23C305.4 375.62 307.52 364.93 309.65 354.45C311.08 347.38 312.5 340.31 314.12 333.28C315.86 325.73 317.93 318.02 322.58 311.84C330.02 301.95 343.23 297.56 355.58 298.52C367.93 299.48 379.46 305.1 389.66 312.1C397.699 317.473 405.106 323.736 411.74 330.77Z" fill="#192534"/>
<path d="M378.56 152.75C377.999 153.651 377.609 154.648 377.41 155.69C377.16 157.74 378.41 159.62 379.41 161.41C380.691 163.71 381.676 166.163 382.34 168.71C382.816 170.287 382.962 171.944 382.77 173.58C382.526 174.808 382.087 175.99 381.47 177.08C379.54 180.8 376.68 184.24 372.79 185.79C369.778 186.899 366.492 187.032 363.4 186.17C360.328 185.3 357.425 183.921 354.81 182.09C352.606 180.693 350.624 178.974 348.93 176.99C347.312 174.82 345.95 172.471 344.87 169.99C342.79 165.64 340.68 160.99 341.06 156.22C341.08 155.787 341.161 155.36 341.3 154.95C341.625 154.209 342.078 153.532 342.64 152.95C346.906 147.894 349.094 141.407 348.76 134.8L363.33 138.11C366.54 138.84 369.75 139.57 372.92 140.48C375.52 141.23 379.52 142.27 381.21 144.59C382.9 146.91 379.71 150.63 378.56 152.75Z" fill="#FBBEBE"/>
<path d="M370.76 150.27C385.385 150.27 397.24 138.415 397.24 123.79C397.24 109.166 385.385 97.31 370.76 97.31C356.136 97.31 344.28 109.166 344.28 123.79C344.28 138.415 356.136 150.27 370.76 150.27Z" fill="#FBBEBE"/>
<path d="M366.5 177.21C367.62 174.76 370.04 173.21 372.25 171.67C374.46 170.13 376.7 168.16 377.13 165.49C377.156 164.886 377.306 164.294 377.57 163.75C378.42 162.47 380.44 163.11 381.65 164.05C384.59 166.34 386.59 169.59 388.54 172.76C391.063 176.615 393.222 180.696 394.99 184.95C397.8 192.36 398.14 200.45 398.45 208.36C398.73 215.56 399 222.87 397.25 229.85C396.15 234.27 394.25 238.56 394.14 243.11C393.81 259.64 388.07 275.44 387.67 291.97C387.64 296.75 387.88 301.527 388.39 306.28L389.33 317.01C374.79 316.177 360.29 314.9 345.83 313.18C345.41 308.24 344 303.45 342.71 298.67C337.428 279.128 334.042 259.122 332.6 238.93C331.83 228.21 331.04 217.53 329.85 206.85C328.78 197.14 326.68 187.37 327.94 177.68C328.599 173.276 329.985 169.011 332.04 165.06C332.69 163.486 333.807 162.149 335.24 161.23C335.956 160.884 336.717 160.638 337.5 160.5C339.767 160.041 342.068 159.77 344.38 159.69C344.945 159.642 345.514 159.697 346.06 159.85C347.034 160.336 347.834 161.111 348.35 162.07C352.805 168.768 359.111 174.028 366.5 177.21Z" fill="#F2F2F2"/>
<path d="M354.22 175.09C356.08 177.75 360.02 178.38 361.74 181.09C362.319 182.223 362.759 183.421 363.05 184.66C364.1 188.01 366.22 190.92 367.51 194.19C369.37 198.89 369.42 204.09 369.44 209.14C369.623 213.163 369.314 217.192 368.52 221.14C367.92 223.61 366.94 225.96 366.22 228.4C364.997 232.549 364.543 236.887 364.88 241.2C364.88 242.132 365.129 243.046 365.6 243.85C366.278 244.653 367.164 245.255 368.16 245.59C371.09 246.88 374.16 248.2 377.36 247.9C378.016 247.879 378.652 247.667 379.19 247.29C379.561 246.952 379.866 246.549 380.09 246.1L382.09 242.72C383.9 239.63 385.79 236.17 385.09 232.64C384.582 230.818 383.817 229.077 382.82 227.47C381.542 224.861 380.452 222.164 379.56 219.4C376.37 210.23 373.14 200.93 372.42 191.25C371.997 187.566 372.407 183.834 373.62 180.33C374.559 178.173 375.74 176.13 377.14 174.24C376.823 173.815 376.385 173.497 375.883 173.327C375.381 173.157 374.839 173.144 374.33 173.29C373.324 173.601 372.35 174.006 371.42 174.5C368.48 175.74 365.22 175.29 362.25 174.44C361.09 174.1 359.25 172.94 358.05 173.02C357.64 173.07 354.29 175.21 354.22 175.09Z" fill="#111629"/>
<path d="M377.63 174.98C377.03 174.5 376.1 174.06 375.57 174.62C375.392 174.863 375.263 175.138 375.19 175.43C374.67 176.83 373.14 177.52 371.75 178.06C370.36 178.6 368.86 178.9 368.02 177.87C367.755 177.469 367.625 176.994 367.648 176.514C367.671 176.034 367.847 175.573 368.15 175.2C368.765 174.459 369.507 173.833 370.34 173.35C374.94 170.103 378.073 165.173 379.06 159.63C380.35 160.655 381.204 162.131 381.45 163.76C381.78 165.35 381.82 166.99 382.15 168.58C382.64 170.86 383.73 172.99 383.98 175.3C384.11 176.53 383.98 177.77 383.98 179C384.025 180.203 384.165 181.4 384.4 182.58C382.06 180.1 380.41 177.19 377.63 174.98Z" fill="#F2F2F2"/>
<path d="M357.39 168.19C356.39 167.24 355.39 166.34 354.39 165.37C350.002 161.087 346.688 155.827 344.72 150.02C343.44 151.02 342.03 152.34 342 154.02C342.114 155.209 342.573 156.338 343.32 157.27C347.102 163.225 349.598 169.904 350.65 176.88C351.19 176.036 351.939 175.345 352.823 174.874C353.707 174.403 354.698 174.167 355.7 174.19C357.28 174.19 364.37 178.39 364.88 177.33C365.63 175.67 358.59 169.32 357.39 168.19Z" fill="#F2F2F2"/>
<path d="M379.72 160.23C389.127 169.594 400.642 176.566 413.3 180.56C414.558 180.834 415.725 181.427 416.69 182.28C417.411 183.18 417.895 184.245 418.1 185.38C420.54 194.92 421.36 204.79 422.17 214.6C422.382 216.222 422.348 217.868 422.07 219.48C421.48 222.1 419.62 224.22 417.79 226.19C412.05 232.34 405.5 238.77 404.53 247.13C404.456 248.742 404.265 250.346 403.96 251.93C403.46 253.79 402.35 255.43 401.67 257.24C398.33 266.15 405.88 276.94 401.28 285.24C403.77 290.024 405.478 295.176 406.34 300.5C406.494 302.518 406.956 304.501 407.71 306.38C409.08 309.24 411.9 311.06 414.12 313.38C420.89 320.32 421.72 330.94 422.12 340.63C422.37 346.09 422.29 352.36 418.12 355.94C415.71 358.03 412.42 358.71 409.27 359.23C405.08 359.93 400.52 360.43 396.81 358.36C394.15 356.88 392.34 354.29 390.61 351.79C387.33 347.02 384.04 342.26 380.93 337.37C376.01 329.66 371.37 320.85 372.79 311.81C372.39 321.06 370.44 330.38 365.9 338.44C361.36 346.5 354.05 353.23 345.18 355.89C336.31 358.55 325.94 356.67 319.33 350.19C317.172 347.968 315.319 345.47 313.82 342.76C310.057 336.317 307.312 329.331 305.68 322.05C305.25 320.16 304.93 318.05 305.88 316.36C306.33 315.56 307.02 314.93 307.49 314.14C309.07 311.45 307.55 308.06 306.02 305.32C303.69 305.54 302.02 302.8 302.23 300.46C302.44 298.12 303.84 296.09 304.83 293.96C307.73 287.68 307.09 280.37 305.69 273.6C304.29 266.83 302.2 260.1 302.36 253.19C302.53 245.88 297.27 239.3 293.26 233.19C291.02 229.75 288.41 226.55 286.46 222.94C282.394 215.343 281.454 206.459 283.84 198.18C285.24 193.929 287.077 189.833 289.32 185.96L292.62 179.77C293.234 178.291 294.188 176.977 295.404 175.935C296.62 174.893 298.064 174.151 299.62 173.77L322.45 164.77C325.369 163.773 328.141 162.387 330.69 160.65C333.48 158.55 335.56 155.65 338.22 153.41C338.608 153.003 339.073 152.677 339.588 152.452C340.103 152.227 340.658 152.108 341.22 152.1C343.36 152.29 344.12 154.99 344.34 157.1C344.84 161.82 348.34 165.82 349.53 170.41C355.97 195.76 369.6 219.14 373.34 245.02C377.54 234.93 381.74 224.82 387.12 215.32C387.969 213.956 388.682 212.513 389.25 211.01C389.896 208.843 390.136 206.575 389.96 204.32C389.69 197.81 387.96 191.45 386.25 185.16C384.03 176.6 382.03 168.71 379.72 160.23Z" fill="#3F3D56"/>
<path d="M423.23 237.69C423.67 241.95 424.1 246.22 424.89 250.43C425.81 255.3 427.21 260.06 428.6 264.82C429.279 267.496 430.251 270.088 431.5 272.55C431.953 273.265 432.312 274.034 432.57 274.84C433.06 276.84 431.94 278.84 431.46 280.84C430.02 286.84 434.34 293.51 431.62 299.04C430.8 300.72 429.37 302.11 428.83 303.91C428.2 305.98 428.83 308.19 429.16 310.33C430.01 316.33 427.96 322.43 425.94 328.2L422.5 337.94C419.36 332.1 416.19 326.2 411.85 321.19C410.3 319.39 408.61 317.72 407.18 315.82C405.048 312.834 403.363 309.553 402.18 306.08C399.127 297.828 397.383 289.15 397.01 280.36C396.762 277.861 397.052 275.338 397.86 272.96C398.522 271.585 399.263 270.249 400.08 268.96C402.76 264.13 403.31 258.41 403.26 252.89C403.21 247.37 402.62 241.83 403.26 236.34C403.782 231.756 405.138 227.306 407.26 223.21C408.512 220.557 410.372 218.238 412.69 216.44C414.42 215.145 416.53 214.459 418.69 214.49C421.96 214.68 421.21 217.49 421.49 220.2L423.23 237.69Z" fill="#3F3D56"/>
<path d="M276.14 224.08C274.1 230.08 272.26 236.133 270.62 242.24C269.02 248.24 267.59 254.273 266.33 260.34C265.683 263.007 265.321 265.736 265.25 268.48C265.378 271.675 265.926 274.838 266.88 277.89C273.32 301.1 285.06 322.51 298.28 342.64C302.058 337.929 306.544 333.833 311.58 330.5C311.992 330.256 312.336 329.912 312.58 329.5C312.707 329.111 312.744 328.699 312.688 328.293C312.633 327.888 312.486 327.501 312.26 327.16C308.61 319.68 302.83 313.09 301.01 304.96C300.25 301.58 300.22 298.06 299.36 294.7C298.25 290.35 295.77 286.37 295.2 281.91C294.59 277.05 296.2 271.75 293.92 267.44C298.57 265.63 301.26 260.84 303.23 256.25C305.335 251.554 306.84 246.612 307.71 241.54C309.079 231.816 307.176 221.913 302.3 213.39C299.918 209.138 296.862 205.302 293.25 202.03C292.06 200.96 289.25 197.89 287.52 197.92C285.21 197.97 284.47 201.71 283.81 203.39C281.14 210.25 278.5 217.12 276.14 224.08Z" fill="#3F3D56"/>
<path d="M317.56 336.01C317.86 336.23 318.2 336.53 318.12 336.89C318.04 337.25 317.75 337.34 317.49 337.49C316.138 338.449 315.129 339.816 314.61 341.39C312.948 345.135 311.499 348.971 310.27 352.88C308.032 349.527 305.4 346.455 302.43 343.73C300.15 341.63 297.6 339.64 296.38 336.8C296.38 336.72 301.62 332.85 302.1 332.43C303.57 331.12 305.42 327.49 306.94 326.69C308.66 325.79 310.3 329.32 311.61 330.74C313.412 332.691 315.405 334.457 317.56 336.01Z" fill="#FBBEBE"/>
<path d="M398.88 119.65C398.81 118.34 398.64 116.89 397.64 116.04C396.762 115.433 395.705 115.14 394.64 115.21C388.81 115.02 382.78 116 377.28 114.04C373.66 112.75 370.57 110.27 367.04 108.73C363.51 107.19 358.99 106.78 356.14 109.37C353.98 111.37 353.39 114.44 352.64 117.27C350.989 123.516 348.049 129.348 344.01 134.39C341.3 133.55 339.36 131.13 338.11 128.59C333.86 119.93 335.95 109.59 338.97 100.41C339.97 97.33 341.08 94.28 342.19 91.24L344.63 84.52C347.833 84.2055 350.808 82.7249 352.99 80.36L354.04 82.91C356.752 82.8124 359.369 81.8877 361.54 80.26C362.38 81.84 364.54 82.26 366.29 81.75C368.04 81.24 369.55 80.26 371.29 79.75C375.94 78.25 380.9 80.56 385.78 80.82C387.845 80.7697 389.911 80.8298 391.97 81C397.73 81.93 401.8 87.35 403.56 92.91C404.73 96.61 405.7 101.16 409.35 102.47C409.43 103.87 406.95 104.14 406.74 105.47C406.715 105.913 406.819 106.354 407.04 106.74L410.39 113.93C408.789 114.332 407.104 114.248 405.55 113.69C404.04 117.24 399.03 122.36 398.88 119.65Z" fill="#192534"/>
<path d="M568.64 135.3C570.337 140.783 571.674 146.372 572.64 152.03C573.36 156.27 573.78 160.98 571.35 164.52C580.61 150.59 590.28 136.24 604.35 127.25C601.485 124.143 599.305 120.469 597.953 116.465C596.6 112.461 596.105 108.218 596.5 104.01C596.58 103.17 584.95 107.56 584.06 108.06C579.98 110.33 576.24 113.15 572.26 115.58C570.2 116.83 561.62 119.79 561.54 121.58C561.54 122.73 564.95 126.25 565.59 127.46C566.846 129.974 567.867 132.598 568.64 135.3Z" fill="#FBBEBE"/>
<path d="M611.67 660.68C609.384 659.07 606.704 658.108 603.915 657.897C601.127 657.685 598.333 658.232 595.83 659.48C591.3 661.82 588.25 666.25 584.13 669.25C577.05 674.39 567.7 674.8 559.41 677.58C557.21 678.32 554.87 679.42 553.94 681.58C553.628 682.488 553.504 683.45 553.574 684.407C553.645 685.364 553.909 686.298 554.35 687.15C555.736 690.239 558.164 692.742 561.21 694.22C564.93 696 569.21 696.08 573.33 696.13L609.13 696.55C620.13 696.68 631.2 696.81 642.13 698.18C644.68 698.5 647.44 698.85 649.69 697.6C653.35 695.6 653.77 690.54 653.49 686.37C652.753 675.805 650.392 665.416 646.49 655.57C646.06 654.48 645.49 653.24 644.28 653.04C643.421 653.001 642.577 653.271 641.9 653.8C631.8 659.8 619.01 663.19 608.27 658.39" fill="white"/>
<path d="M629.59 432.28C625.59 455.51 628.2 479.38 632.7 502.51C633.529 507.115 634.62 511.67 635.97 516.15C637.58 521.25 639.75 526.15 641.26 531.28C645.1 544.28 644.56 558.18 643.99 571.75L641.37 633.5C641.15 638.68 640.95 643.98 642.51 648.92C643.14 650.92 643.91 653.42 642.32 654.77C641.698 655.217 640.971 655.496 640.21 655.58C633.055 656.898 625.664 655.79 619.21 652.43L618.5 590.05C618.28 570.82 618.05 551.51 615.09 532.52C612.74 517.42 608.66 502.52 608.39 487.24C608.11 471.24 612.03 455.45 616.03 439.94C616.89 436.62 620.03 434.19 622.61 431.94C623.51 431.052 624.606 430.388 625.81 430C627.01 429.67 628.85 431.27 629.59 432.28Z" fill="#3F3D56"/>
<path opacity="0.1" d="M629.59 432.28C625.59 455.51 628.2 479.38 632.7 502.51C633.529 507.115 634.62 511.67 635.97 516.15C637.58 521.25 639.75 526.15 641.26 531.28C645.1 544.28 644.56 558.18 643.99 571.75L641.37 633.5C641.15 638.68 640.95 643.98 642.51 648.92C643.14 650.92 643.91 653.42 642.32 654.77C641.698 655.217 640.971 655.496 640.21 655.58C633.055 656.898 625.664 655.79 619.21 652.43L618.5 590.05C618.28 570.82 618.05 551.51 615.09 532.52C612.74 517.42 608.66 502.52 608.39 487.24C608.11 471.24 612.03 455.45 616.03 439.94C616.89 436.62 620.03 434.19 622.61 431.94C623.51 431.052 624.606 430.388 625.81 430C627.01 429.67 628.85 431.27 629.59 432.28Z" fill="black"/>
<path d="M554.5 359.68C553.02 365.77 556.16 372.08 555.81 378.34C555.61 382.13 554.12 385.91 554.81 389.63C555.5 393.35 558.16 396.15 559.58 399.56C560.616 402.408 561.163 405.41 561.2 408.44C561.61 415.92 561.28 423.44 561 430.89C560.53 443.39 560.18 455.96 561.83 468.35C563.267 479.084 566.185 489.567 570.5 499.5C571.808 502.202 572.888 505.008 573.73 507.89C574.283 510.575 574.65 513.295 574.83 516.03C575.781 524.926 578.168 533.609 581.9 541.74C584.45 547.31 588.9 551.74 590.31 557.65C591.65 563.31 590.75 569.28 591.72 575.01C592.43 579.26 594.16 583.28 595.12 587.48C596.37 592.91 596.34 598.54 596.97 604.08C598.77 620.08 606.04 636.08 601.7 651.6C600.83 654.72 599.48 657.89 600.09 661.07C600.39 662.63 601.15 664.17 600.81 665.72C600.53 667.04 599.51 668.06 598.99 669.31C597.99 671.65 599.05 674.43 600.83 676.24C602.729 677.927 604.936 679.231 607.33 680.08C614.7 683.23 622.33 686.43 630.33 686.36C631.301 686.412 632.271 686.234 633.16 685.84C634.6 685.09 635.31 683.46 635.92 681.96L640.02 671.82C640.52 670.59 641.02 669.15 640.33 668.01C639.85 667.385 639.268 666.844 638.61 666.41C635.3 663.62 636.05 658.41 636.93 654.22C639.178 643.458 640.423 632.512 640.65 621.52C641.09 599.6 637.48 577.81 633.88 556.18C632.63 548.67 631.37 541.11 628.88 533.91C626.39 526.71 622.72 519.78 623.32 512.3C623.96 504.22 621.86 495.75 623.32 487.78C624.78 479.81 627.09 472.01 628.58 464.05C630.51 453.72 630.99 443.19 631.58 432.71C631.83 428.43 632.15 424.01 634.15 420.21C635.32 417.99 637.02 416.09 638.33 413.94C641.71 408.35 642.25 401.42 645.48 395.74C647.01 393.05 649.12 390.68 650.24 387.8C651.026 385.528 651.438 383.144 651.46 380.74C651.777 374.705 651.442 368.653 650.46 362.69C633.437 354.028 614.558 349.648 595.46 349.93C588.15 350.05 580.76 350.79 573.9 353.32C567.36 355.75 561.4 359.16 554.5 359.68Z" fill="#3F3D56"/>
<path d="M595.5 676.5C592.56 680.16 592.76 685.39 590.88 689.7C588.6 694.93 583.52 698.28 578.7 701.33L548.7 720.33C547.06 721.33 545.3 722.56 544.7 724.42C544.415 725.607 544.467 726.851 544.85 728.01C545.566 730.519 546.901 732.808 548.732 734.668C550.563 736.527 552.832 737.896 555.33 738.65C557.985 739.283 560.712 739.562 563.44 739.48L576.93 739.66C581.04 739.821 585.155 739.66 589.24 739.18C592.98 738.64 596.62 737.57 600.34 736.89C607.11 735.66 614.07 735.77 620.85 734.58C625.002 733.764 629.102 732.705 633.13 731.41C638.03 729.94 643.02 728.41 647.22 725.5C648.376 724.796 649.314 723.786 649.93 722.58C650.64 720.93 650.25 719.04 649.85 717.29L643.41 688.99C643.047 686.633 642.188 684.381 640.89 682.38C639.46 680.48 636.89 679.22 634.66 680.03C633.74 680.449 632.871 680.973 632.07 681.59C628.77 683.76 624.54 684.12 620.64 683.44C618.12 682.99 614.79 682.3 612.76 680.63C611.22 679.36 610.76 677.39 609.45 675.95C608.532 675.007 607.425 674.267 606.202 673.779C604.98 673.291 603.668 673.066 602.352 673.118C601.037 673.17 599.747 673.498 598.567 674.08C597.386 674.663 596.341 675.487 595.5 676.5Z" fill="white"/>
<path d="M576.05 131.4C596.004 131.4 612.18 115.224 612.18 95.27C612.18 75.316 596.004 59.14 576.05 59.14C556.096 59.14 539.92 75.316 539.92 95.27C539.92 115.224 556.096 131.4 576.05 131.4Z" fill="#FBBEBE"/>
<path d="M548.18 97.39C551.64 95.45 551.64 89.86 555.18 88C558.72 86.14 562.74 89.37 565.01 92.63C568.319 97.4044 570.616 102.805 571.76 108.5C572.08 110.12 572.38 111.89 573.6 113.02C574.82 114.15 576.42 114.29 577.98 114.45C582.547 114.903 587.12 115.317 591.7 115.69C596.8 116.1 602.18 116.43 606.81 114.24C608.637 113.423 610.207 112.123 611.35 110.48C612.266 108.902 612.921 107.187 613.29 105.4C615.68 96.31 618.09 87.11 618.29 77.71C618.37 73.83 618.03 69.81 616.16 66.41C615.07 64.41 613.47 62.67 613.02 60.47C612.57 58.27 614.02 55.47 616.3 55.71C614.239 55.7948 612.186 55.4047 610.3 54.57C608.49 53.57 607.15 51.42 607.79 49.46C602.71 50.11 599.01 45.09 595.05 41.84C594.406 41.2016 593.537 40.8424 592.63 40.84C591.934 41.0136 591.262 41.2722 590.63 41.61C588.63 42.31 586.54 40.98 584.49 40.4C578.99 38.86 572 42.58 567.92 38.58C568.31 41.13 565.18 42.84 562.6 42.79C560.02 42.74 557.36 41.79 554.92 42.65C555.273 43.2964 555.48 44.0128 555.524 44.7481C555.568 45.4835 555.45 46.2195 555.176 46.9036C554.903 47.5877 554.482 48.203 553.943 48.7054C553.405 49.2079 552.761 49.585 552.06 49.81L553.27 52.45C552.023 52.6992 550.871 53.292 549.943 54.1614C549.016 55.0307 548.35 56.1421 548.02 57.37C546.69 62.62 547.02 70.08 547.34 75.48C547.5 77.85 549.81 96.5 548.18 97.39Z" fill="#192534"/>
<path d="M579.01 141.84C560.86 162.25 556.24 190.98 552.37 218.03L546.67 257.97C545.19 268.33 543.67 278.69 542.38 289.08C541.48 296.19 540.64 303.41 541.62 310.51C542.39 316.11 544.26 321.51 545.82 326.9C549.879 341.037 551.9 355.682 551.82 370.39C553.03 366.83 557.22 365.39 560.9 364.59C591.778 357.89 623.993 361.331 652.76 374.4C657.81 360.25 656.86 344.77 658.27 329.81C660.27 308.48 667.16 287.81 669.2 266.52C669.95 258.59 670.04 250.62 670.12 242.65C670.18 236.8 670.24 230.89 669.02 225.16C667.66 218.82 664.79 212.91 661.82 207.16C653.61 191.176 644.488 175.677 634.5 160.74C629.473 153.22 624.23 145.85 618.77 138.63C616.003 134.97 613.18 131.35 610.3 127.77C607.51 124.3 606.3 121.29 601.87 123.37C593.5 127.29 585.1 134.99 579.01 141.84Z" fill="#DEFF7D"/>
<path d="M589.41 311.72C584.982 311.88 580.549 311.74 576.14 311.3C572.87 310.98 569.53 310.5 566.34 311.3C564.953 311.649 563.655 312.286 562.53 313.17C562.113 313.541 561.814 314.026 561.668 314.564C561.522 315.103 561.537 315.673 561.71 316.203C561.883 316.734 562.207 317.202 562.642 317.552C563.077 317.901 563.605 318.116 564.16 318.17L567.58 318.47C569.75 318.66 572.01 318.88 573.7 320.47C574.394 321.095 574.835 321.952 574.94 322.88C575.15 325.21 573.13 326.48 571.32 327.45C568.747 328.658 566.367 330.242 564.26 332.15C562.61 333.744 561.573 335.868 561.33 338.15C561.322 338.353 561.368 338.555 561.463 338.735C561.558 338.915 561.699 339.067 561.871 339.176C562.044 339.284 562.241 339.345 562.445 339.353C562.648 339.361 562.85 339.315 563.03 339.22C567.03 337.22 569.64 331.29 574.03 332.28C570.037 333.544 566.617 336.175 564.37 339.71C563.816 340.554 563.563 341.561 563.652 342.566C563.742 343.572 564.169 344.518 564.863 345.251C565.558 345.984 566.48 346.461 567.479 346.604C568.479 346.747 569.497 346.548 570.37 346.04C571.02 345.659 571.648 345.242 572.25 344.79C575.224 342.382 577.888 339.614 580.18 336.55C576.98 343.3 573.74 351.2 577.42 357.91C577.603 358.279 577.89 358.587 578.245 358.797C578.6 359.006 579.008 359.108 579.42 359.09C580.58 358.97 580.92 357.88 581.11 356.92C581.71 353.83 581.86 350.57 583.38 347.82C586.9 341.44 595.58 340.82 602.19 337.71C610.12 334.03 615.55 326.11 617.74 317.65C618.506 315.183 618.64 312.563 618.13 310.03C616.66 304.34 609.64 303.03 605.13 305.78C599.6 309.29 596.39 311.5 589.41 311.72Z" fill="#FBBEBE"/>
<path opacity="0.1" d="M582.39 199.79C589.39 210.6 601.54 216.69 611.96 224.28C614.502 225.936 616.719 228.044 618.5 230.5C621.13 234.56 621.5 239.72 620.96 244.5C620.28 250.81 618.25 256.88 616.24 262.9L611.87 275.95C609.1 284.23 606.24 292.68 600.97 299.64C599.62 301.41 598.05 303.3 598.11 305.52C598.226 306.803 598.667 308.034 599.39 309.1C601.077 311.852 603.299 314.237 605.926 316.113C608.553 317.989 611.53 319.317 614.68 320.02C616.567 320.5 618.543 320.5 620.43 320.02C623.13 319.22 625.16 317.02 627.04 314.94C636.04 305.01 645.04 294.94 651.54 283.29C657.89 271.92 661.69 259.29 665.19 246.78C666.631 242.175 667.636 237.444 668.19 232.65C668.93 223.65 666.57 214.65 662.71 206.52C658.85 198.39 653.54 191.03 648.07 183.88C642.907 176.857 637.171 170.274 630.92 164.2C620.04 154.03 606.73 148.05 592.17 153.82C581.89 157.9 578.04 166.41 577.12 177.31C576.341 185.18 578.195 193.086 582.39 199.79Z" fill="black"/>
<path d="M586.03 197.05C593.03 207.86 605.19 213.95 615.6 221.54C618.134 223.212 620.34 225.333 622.11 227.8C624.74 231.86 625.11 237.01 624.57 241.8C623.88 248.11 621.86 254.18 619.84 260.2L615.47 273.2C612.7 281.48 609.84 289.92 604.57 296.89C603.23 298.66 601.66 300.54 601.72 302.77C601.83 304.051 602.271 305.281 603 306.34C604.684 309.093 606.905 311.48 609.53 313.357C612.155 315.235 615.13 316.566 618.28 317.27C620.17 317.75 622.15 317.75 624.04 317.27C626.74 316.48 628.76 314.27 630.65 312.2C639.65 302.26 648.65 292.2 655.15 280.55C661.5 269.18 665.3 256.55 668.8 244.03C670.245 239.429 671.25 234.701 671.8 229.91C672.54 220.91 670.18 211.91 666.33 203.77C662.48 195.63 657.16 188.28 651.69 181.13C646.51 174.144 640.76 167.598 634.5 161.56C623.63 151.4 610.32 145.41 595.76 151.19C585.47 155.27 581.63 163.77 580.7 174.68C579.966 182.52 581.84 190.383 586.03 197.05Z" fill="#DEFF7D"/>
<path d="M807.15 555.74C807.158 558.348 806.889 560.949 806.35 563.5C806.25 563.98 806.14 564.5 806.03 564.91C803.19 576.3 795.18 584.63 785.62 585.16C785.3 585.16 784.98 585.16 784.62 585.16C774.51 585.16 765.96 576.44 763.14 564.43C763.06 564.11 762.99 563.79 762.92 563.43C762.381 560.879 762.112 558.278 762.12 555.67C762.12 539.4 772.19 526.22 784.62 526.22C797.05 526.22 807.15 539.5 807.15 555.74Z" fill="#3F3D56"/>
<path opacity="0.1" d="M807.15 555.74C807.158 558.348 806.889 560.949 806.35 563.5C806.25 563.98 806.14 564.5 806.03 564.91C805.69 564.91 805.36 564.91 805.03 564.91C802.554 564.777 800.092 564.442 797.67 563.91C795.524 564.573 793.331 565.075 791.11 565.41C789.407 565.666 787.691 565.827 785.97 565.89H784.23C782.17 565.89 780.112 565.753 778.07 565.48C774.768 565.039 771.525 564.234 768.4 563.08C766.689 563.65 764.946 564.117 763.18 564.48C763.1 564.16 763.03 563.84 762.96 563.48C762.421 560.929 762.152 558.328 762.16 555.72C762.16 539.45 772.23 526.27 784.66 526.27C797.09 526.27 807.15 539.5 807.15 555.74Z" fill="black"/>
<path d="M855.15 500.88C855.16 493.72 853.481 486.659 850.25 480.27L823.79 488.5L847.02 474.84C843.123 469.213 838.013 464.532 832.066 461.144C826.119 457.755 819.487 455.744 812.66 455.26C811.573 453.611 810.381 452.034 809.09 450.54L771.09 462.37L802.26 444.04C796.297 439.464 789.299 436.428 781.883 435.201C774.468 433.974 766.865 434.594 759.746 437.005C752.627 439.417 746.212 443.546 741.069 449.027C735.926 454.508 732.214 461.172 730.26 468.43L762.81 505.9L727.5 480.36C718.555 486.704 712.188 496.05 709.557 506.696C706.927 517.342 708.208 528.578 713.168 538.358C718.129 548.138 726.437 555.811 736.581 559.978C746.724 564.145 758.027 564.529 768.43 561.06C777.84 564.519 788.123 564.804 797.71 561.87C804.393 563.341 811.321 563.295 817.985 561.735C824.648 560.175 830.877 557.141 836.213 552.857C841.549 548.572 845.856 543.146 848.819 536.977C851.781 530.808 853.323 524.053 853.33 517.21C853.33 516.21 853.33 515.21 853.23 514.21C854.526 509.886 855.173 505.394 855.15 500.88Z" fill="#DEFF7D"/>
<path opacity="0.1" d="M854.36 509.36C840.386 506.711 826.057 506.529 812.02 508.82C796.13 511.45 779.89 517.23 764.35 513.01C755.23 510.53 747.35 504.79 738.44 501.6C729.843 498.601 720.583 498.047 711.69 500C708.301 508.107 707.318 517.018 708.858 525.669C710.398 534.319 714.397 542.344 720.375 548.783C726.353 555.222 734.059 559.804 742.572 561.981C751.085 564.158 760.044 563.839 768.38 561.06C777.79 564.519 788.073 564.804 797.66 561.87C804.343 563.341 811.271 563.295 817.935 561.735C824.598 560.175 830.827 557.141 836.163 552.857C841.499 548.572 845.806 543.146 848.769 536.977C851.731 530.808 853.273 524.053 853.28 517.21C853.28 516.21 853.28 515.21 853.18 514.21C853.662 512.616 854.056 510.997 854.36 509.36Z" fill="black"/>
</g>
<defs>
<clipPath id="clip0_1_37">
<rect width="1094" height="760" fill="white" transform="translate(0.5 0.5)"/>
</clipPath>
</defs>
</svg>
