<svg id="visual" viewBox="0 0 900 600" width="900" height="600" xmlns="http://www.w3.org/2000/svg" xmlns:xlink="http://www.w3.org/1999/xlink" version="1.1"><rect x="0" y="0" width="900" height="600" fill="#001122"></rect><path d="M0 431L21.5 435.7C43 440.3 86 449.7 128.8 460.2C171.7 470.7 214.3 482.3 257.2 479.5C300 476.7 343 459.3 385.8 446.2C428.7 433 471.3 424 514.2 429C557 434 600 453 642.8 453.3C685.7 453.7 728.3 435.3 771.2 424.2C814 413 857 409 878.5 407L900 405L900 601L878.5 601C857 601 814 601 771.2 601C728.3 601 685.7 601 642.8 601C600 601 557 601 514.2 601C471.3 601 428.7 601 385.8 601C343 601 300 601 257.2 601C214.3 601 171.7 601 128.8 601C86 601 43 601 21.5 601L0 601Z" fill="#deff7d" stroke-linecap="round" stroke-linejoin="miter"></path></svg>