<svg id="visual" viewBox="0 0 1300 600" width="1300" height="600" xmlns="http://www.w3.org/2000/svg" xmlns:xlink="http://www.w3.org/1999/xlink" version="1.1"><rect x="0" y="0" width="1300" height="600" fill="#001121"></rect><defs><linearGradient id="grad1_0" x1="53.8%" y1="0%" x2="100%" y2="100%"><stop offset="6.666666666666669%" stop-color="#001121" stop-opacity="1"></stop><stop offset="93.33333333333333%" stop-color="#001121" stop-opacity="1"></stop></linearGradient></defs><defs><linearGradient id="grad2_0" x1="0%" y1="0%" x2="46.2%" y2="100%"><stop offset="6.666666666666669%" stop-color="#001121" stop-opacity="1"></stop><stop offset="93.33333333333333%" stop-color="#001121" stop-opacity="1"></stop></linearGradient></defs><g transform="translate(1300, 0)"><path d="M0 540C-74.8 532.4 -149.5 524.8 -202.1 487.8C-254.6 450.8 -284.9 384.4 -336.6 336.6C-388.3 288.8 -461.4 259.6 -498.9 206.6C-536.4 153.7 -538.2 76.8 -540 0L0 0Z" fill="#deff7d"></path></g><g transform="translate(0, 600)"><path d="M0 -540C46.5 -478.8 93 -417.6 166.5 -401.9C239.9 -386.2 340.4 -416.1 381.8 -381.8C423.3 -347.6 405.7 -249.2 422.2 -174.9C438.7 -100.6 489.4 -50.3 540 0L0 0Z" fill="#deff7d"></path></g></svg>